<svg xmlns="http://www.w3.org/2000/svg" xmlns:xlink="http://www.w3.org/1999/xlink" width="1755" height="380" viewBox="0 0 1755 380"><defs><linearGradient id="a" y1="-24.223" x2="1" y2="-24.223" gradientUnits="objectBoundingBox"><stop offset="0" stop-color="#31d8ff"/><stop offset="1" stop-color="#4267b2"/></linearGradient></defs><g transform="translate(2827 2384)"><g transform="translate(405 -166)"><g transform="translate(-3232 -2218)"><path d="M380,190c0,104.935-85.065,190-190,190S0,294.935,0,190,85.064,0,190,0,380,85.064,380,190Zm0,0" fill="url(#a)"/><path d="M239.963,78.5a80.855,80.855,0,0,0-48.917,16.294,82.346,82.346,0,0,0-27.335,36.358,82.333,82.333,0,0,0-36.358,27.337,81.588,81.588,0,0,0-5.793,88.971l-29.5,46.626a10.044,10.044,0,0,0,12.6,14.534l57.235-25.661a81.647,81.647,0,0,0,79.623-10.31,82.333,82.333,0,0,0,27.337-36.358,82.35,82.35,0,0,0,36.358-27.337A81.547,81.547,0,0,0,239.963,78.5ZM192.6,268.858a60.932,60.932,0,0,1-26.422-5.953,10.044,10.044,0,0,0-8.432-.1l-30.886,13.846,15.036-23.764a10.039,10.039,0,0,0-.178-11.009,61.484,61.484,0,0,1,32.824-93.234h.005a61.257,61.257,0,0,1,13.449-2.524q2.291-.169,4.6-.167a61.452,61.452,0,1,1,0,122.9Zm81.449-57.609c.008-.175.01-.351.018-.523.008-.2.013-.4.021-.6.029-.908.05-1.815.05-2.725A81.63,81.63,0,0,0,192.6,125.867c-.91,0-1.818.021-2.725.05-.2.005-.4.013-.594.021-.175.005-.351.01-.526.018a61.5,61.5,0,1,1,85.294,85.294Zm0,0" transform="translate(-15.608 -4.267)" fill="#fff"/></g><text transform="translate(-2400 -1955)" fill="#4267b2" font-size="300" font-family="HarlowSolid, Harlow Solid" letter-spacing="0.016em"><tspan x="-381.948" y="0">Social</tspan></text><text transform="translate(-1735 -1955)" fill="#4267b2" font-size="300" font-family="HarlowSolid, Harlow Solid" letter-spacing="0.016em" text-decoration="underline"><tspan x="-254.439" y="0">Sim</tspan></text></g></g></svg>