<svg height="512pt" viewBox="0 0 512 512" width="512pt" xmlns="http://www.w3.org/2000/svg"><path d="m448 512h-384c-35.34375 0-64-28.65625-64-64v-384c0-35.34375 28.65625-64 64-64h384c35.34375 0 64 28.65625 64 64v384c0 35.34375-28.65625 64-64 64zm0 0" fill="#e4edfb"/><path d="m480 480v-121.886719c0-12.128906-6.847656-23.203125-17.695312-28.625l-98.625-49.3125 20.320312-20.289062v-79.359375c0-68.113282-51.28125-127.679688-119.230469-132.222656-74.53125-5.007813-136.769531 54.222656-136.769531 127.695312v83.886719l20.304688 20.304687-98.625 49.3125c-10.832032 5.40625-17.679688 16.496094-17.679688 28.609375v121.886719h-32c0 17.679688 14.320312 32 32 32h448c17.679688 0 32-14.320312 32-32zm0 0" fill="#d7e1f2"/><path d="m448 512h-384v-114.335938c0-24.238281 13.695312-46.398437 35.375-57.25l92.625-46.300781v-15.488281l-32-32v-67.28125c0-48.785156 34.976562-92.320312 83.375-98.527344 58.546875-7.519531 108.625 38.09375 108.625 95.183594v70.625l-32 32v15.488281l92.625 46.300781c21.679688 10.851563 35.375 33.011719 35.375 57.25zm0 0" fill="#53bdf2"/><path d="m272 128h32v32h-32zm0 0" fill="#fff"/><g fill="#43ade8"><path d="m144 416h32v96h-32zm0 0"/><path d="m336 416h32v96h-32zm0 0"/></g></svg>