<svg viewBox="0 0 512 512" xmlns="http://www.w3.org/2000/svg" xmlns:xlink="http://www.w3.org/1999/xlink"><linearGradient id="a" gradientTransform="matrix(1 0 0 -1 0 -12146)" gradientUnits="userSpaceOnUse" x1="0" x2="512" y1="-12402" y2="-12402"><stop offset="0" stop-color="#31d8ff"/><stop offset="1" stop-color="#ff80ff"/></linearGradient><path d="m512 256c0 141.386719-114.613281 256-256 256s-256-114.613281-256-256 114.613281-256 256-256 256 114.613281 256 256zm0 0" fill="url(#a)"/><path d="m313.722656 78.5c-26.589844 0-51.851562 8.414062-73.058594 24.335938-18.398437 13.816406-32.679687 32.894531-40.824218 54.300781-21.40625 8.144531-40.484375 22.425781-54.300782 40.828125-15.921874 21.207031-24.339843 46.46875-24.339843 73.054687 0 21.136719 5.398437 41.625 15.6875 59.824219l-44.0625 69.636719c-3.539063 5.589843-2.992188 12.839843 1.339843 17.84375 2.917969 3.363281 7.085938 5.175781 11.34375 5.175781 2.066407 0 4.15625-.429688 6.128907-1.3125l85.480469-38.324219c14.550781 5.933594 29.945312 8.9375 45.863281 8.9375 26.585937 0 51.847656-8.414062 73.054687-24.335937 18.402344-13.816406 32.683594-32.894532 40.828125-54.300782 21.40625-8.148437 40.484375-22.425781 54.300781-40.828124 15.921876-21.207032 24.335938-46.46875 24.335938-73.058594 0-67.148438-54.628906-121.777344-121.777344-121.777344zm-70.742187 284.300781c-13.808594 0-27.085938-2.992187-39.460938-8.890625-3.972656-1.894531-8.578125-1.949218-12.59375-.148437l-46.128906 20.679687 22.457031-35.492187c3.191406-5.042969 3.089844-11.503907-.265625-16.441407-10.332031-15.21875-15.789062-33.019531-15.789062-51.488281 0-40.589843 26.042969-75.859375 64.8125-87.757812h.007812c6.515625-2 13.246094-3.261719 20.085938-3.769531 2.28125-.167969 4.574219-.25 6.871093-.25 50.609376 0 91.78125 41.171874 91.78125 91.777343 0 9.203125-1.351562 18.273438-4.019531 26.960938-11.894531 38.769531-47.164062 64.820312-87.757812 64.820312zm121.644531-86.039062c.011719-.261719.015625-.523438.027344-.78125.011718-.296875.019531-.59375.03125-.890625.042968-1.355469.074218-2.710938.074218-4.070313 0-67.148437-54.628906-121.777343-121.777343-121.777343-1.359375 0-2.714844.03125-4.070313.074218-.296875.007813-.59375.019532-.886718.03125-.261719.007813-.523438.015625-.785157.027344 16.652344-25.171875 44.960938-40.875 76.480469-40.875 50.605469 0 91.78125 41.171875 91.78125 91.777344 0 31.523437-15.707031 59.832031-40.875 76.484375zm0 0" fill="#fff"/></svg>